<svg xmlns="http://www.w3.org/2000/svg" xmlns:mydata="http://www.w3.org/2000/svg" mydata:companyname="beer wiki" mydata:contrastcolor="ffffff" mydata:id1="701" mydata:id2="1069" mydata:layouttype="undefined" mydata:presentation="2.5" mydata:specialfontid="undefined" mydata:template="Contrast" viewBox="0 35 550 400"><g fill="none" fill-rule="none" stroke-miterlimit="10" data-paper-data="{&quot;isGlobalGroup&quot;:true,&quot;bounds&quot;:{&quot;x&quot;:205.3279297212232,&quot;y&quot;:115.00000000000001,&quot;width&quot;:139.3441405575536,&quot;height&quot;:240}}" font-family="none" font-size="none" font-weight="none" style="mix-blend-mode:normal" text-anchor="none"><g fill="#62b5e5" fill-rule="nonzero" data-paper-data="{&quot;isSecondaryText&quot;:true}"><path d="M255.363 354.912c.132.044.264.088.352.088.175 0 .307-.132.57-.395.264-.352.352-.528.352-.791 0-.176.088-.352.747-1.538 1.45-2.636 3.119-5.227 5.096-8.083.79-1.098 1.757-2.416 1.801-2.416 0 0-.044.176-.044.351-.176 1.45-.395 4.086-.483 5.755-.044.483-.044 1.01-.044 1.582 0 1.406.088 2.811.176 3.338.087.396.439 1.055.746 1.362.352.352.747.527 1.099.527a.54.54 0 0 0 .439-.22c0-.087.132-.482.264-.922 1.361-4.568 2.855-8.127 4.744-11.158 1.054-1.713 2.284-3.47 3.12-4.437.526-.659 2.283-2.416 2.723-2.768.747-.57 1.318-.922 1.889-1.098.132-.044.307-.132.395-.176.088-.044.264-.131.308-.131.263-.088.351-.264.351-.484 0-.615-.703-1.23-1.625-1.493-.308-.088-.571-.088-.791-.088-.176 0-.352 0-.527.044-1.142.351-2.416 1.274-3.646 2.636-.835.966-2.548 3.91-4.701 8.259a57.417 57.417 0 0 0-2.24 4.964c-.132.439-.264.79-.308.834-.088.22.044-1.45.264-4.305.131-1.406.175-2.724.175-3.602 0-.44 0-.747-.044-.923-.175-.659-.659-1.186-1.361-1.318-.528-.131-.835.132-2.065 1.758-1.933 2.592-3.646 5.183-4.92 7.6l-.352.615c.044-.22 1.01-3.12 1.274-3.866.352-.923.967-2.416 1.274-3.12.264-.658 1.01-2.547 1.626-4.04.922-2.241 1.581-3.56 2.416-4.701.263-.396.395-.66.395-.88a.814.814 0 0 0-.088-.307.812.812 0 0 0-.747-.483l-.175.044c-.352.088-.44.176-.967.703-.703.659-1.625 1.933-2.855 3.778-1.055 1.625-1.845 3.25-2.9 5.843-1.8 4.569-3.075 9.181-3.075 11.246 0 .527 0 .571.132.835.395.834.879 1.405 1.23 1.581z" data-paper-data="{&quot;glyphName&quot;:&quot;W&quot;,&quot;glyphIndex&quot;:0,&quot;firstGlyphOfWord&quot;:true,&quot;word&quot;:1}"/><path d="M279.525 336.286c.176 0 .307-.088.351-.176 0-.044.088-.132.176-.22.088-.044.22-.22.308-.395.131-.264.131-.308.131-.66 0-.57-.088-.878-.395-1.185-.264-.264-.527-.44-.703-.44a.333.333 0 0 0-.176.088c-.088.044-.175.088-.22.088-.043 0-.175 0-.307.044-.307.088-.527.264-.703.615-.088.22-.088.352-.044.483.044.044.044.22.088.396 0 .132 0 .351.044.44.132.35.571.658 1.054.834.132.044.264.088.396.088zm-3.954 10.675a.828.828 0 0 0 .352-.088l.527-.396c.439-.35.747-.702 1.977-2.152 1.098-1.318 2.504-3.251 3.075-4.173.088-.176.175-.352.175-.528 0-.088-.043-.175-.131-.263-.132-.132-.176-.088-.528.395-1.274 1.89-1.889 2.724-2.899 3.866-.922 1.054-1.581 1.67-2.02 1.889-.089.044-.089.044-.089-.044.132-.44.791-1.933 1.406-3.031a71.651 71.651 0 0 0 1.142-2.372c.044-.22.088-.528.088-.791 0-.176 0-.352-.044-.483-.088-.528-.351-.835-.747-.835-.263-.044-.439.044-.878.615-.967 1.23-2.372 3.998-2.68 5.403-.044.176-.044.308-.044.528v.307c.044 1.142.352 1.757.923 2.065.132.044.263.088.395.088z" data-paper-data="{&quot;glyphName&quot;:&quot;i&quot;,&quot;glyphIndex&quot;:1,&quot;word&quot;:1}"/><path d="M279.173 347.664c.22.131.396.131.572 0 .043-.088.22-.308.35-.571.308-.572.967-1.582 1.45-2.24.22-.308.396-.572.44-.572l.088.22c.132.307.747 1.405.966 1.713.264.395.879 1.01 1.186 1.142.308.132.484.176.703.176h.264c.351-.088.659-.176 1.01-.44.308-.22.747-.658.967-.966a14.39 14.39 0 0 1 1.845-2.196c.483-.528.835-1.055.878-1.274.044-.22-.131-.484-.263-.484h-.044a3.299 3.299 0 0 0-.308.352c-.131.175-.395.439-.57.615-.176.132-.44.395-.66.57-.483.484-.878.792-1.625 1.275-.176.132-.483.307-.615.44-.44.307-.835.526-1.186.526-.088 0-.132-.044-.22-.044-.132 0-.263-.087-.483-.351-.352-.308-.66-.703-1.186-1.494l-.308-.439.088-.132c.044-.132.22-.395.79-1.186.44-.615 1.1-1.318 1.978-2.065.834-.703 1.23-.878 2.064-.966.396-.044.572 0 .615.132 0 .131.088.307.176.351.044.044.088.044.176-.044.22-.176.307-.483.307-.834 0-.528-.263-1.143-.659-1.362-.087-.044-.22-.044-.395-.044-.176 0-.44 0-.659.088-.57.175-1.01.439-1.537.878-.835.747-1.933 2.065-2.724 3.207l-1.274 1.801c-.044 0 .088-.307.263-.703.967-2.196 1.89-4.13 3.12-6.326.439-.834.922-1.669 1.054-1.889.088-.22.395-.746.659-1.23.483-.834.703-1.318.703-1.581 0-.264-.176-.483-.352-.483h-.044c-.22.087-1.581 1.713-2.504 3.03-.703 1.011-2.46 3.91-3.338 5.492-1.318 2.372-2.46 5.316-2.46 6.326 0 .66.263 1.274.702 1.582z" data-paper-data="{&quot;glyphName&quot;:&quot;k&quot;,&quot;glyphIndex&quot;:2,&quot;word&quot;:1}"/><path d="M293.846 336.286c.176 0 .308-.088.352-.176 0-.044.087-.132.175-.22.088-.044.22-.22.308-.395.132-.264.132-.308.132-.66 0-.57-.088-.878-.396-1.185-.263-.264-.527-.44-.703-.44a.333.333 0 0 0-.175.088c-.088.044-.176.088-.22.088-.044 0-.176 0-.308.044-.307.088-.527.264-.702.615-.088.22-.088.352-.044.483.044.044.044.22.088.396 0 .132 0 .351.043.44.132.35.572.658 1.055.834.132.044.263.088.395.088zm-3.954 10.675a.828.828 0 0 0 .352-.088l.527-.396c.44-.35.747-.702 1.977-2.152 1.098-1.318 2.504-3.251 3.075-4.173.088-.176.176-.352.176-.528 0-.088-.044-.175-.132-.263-.132-.132-.176-.088-.527.395-1.274 1.89-1.89 2.724-2.9 3.866-.922 1.054-1.581 1.67-2.02 1.889-.088.044-.088.044-.088-.044.132-.44.79-1.933 1.406-3.031a71.651 71.651 0 0 0 1.142-2.372c.044-.22.088-.528.088-.791 0-.176 0-.352-.044-.483-.088-.528-.352-.835-.747-.835-.264-.044-.44.044-.879.615-.966 1.23-2.372 3.998-2.68 5.403-.043.176-.043.308-.043.528v.307c.043 1.142.351 1.757.922 2.065.132.044.264.088.395.088z" data-paper-data="{&quot;glyphName&quot;:&quot;i&quot;,&quot;glyphIndex&quot;:3,&quot;lastGlyphOfWord&quot;:true,&quot;word&quot;:1}"/></g><g fill="#ffc72c" fill-rule="nonzero" data-paper-data="{&quot;isPrimaryText&quot;:true}"><path d="m223.47 294.436-5.601 26.346h2.566c2.289 0 4.337-.638 6.144-1.915 1.807-1.277 3.3-2.916 4.481-4.916 1.18-2 2.006-4.114 2.476-6.342.47-2.229.536-4.343.198-6.343-.337-2-1.126-3.632-2.367-4.897-1.24-1.265-3.005-1.91-5.294-1.933zm-7.12-24.395h19.517c2.313 0 4.174.481 5.583 1.445 1.41.964 2.416 2.223 3.018 3.777.603 1.554.831 3.24.687 5.06-.145 1.819-.633 3.62-1.464 5.403a16.302 16.302 0 0 1-3.379 4.77c-1.422 1.398-3.132 2.458-5.132 3.18 1.928.627 3.38 1.735 4.355 3.326.976 1.59 1.518 3.45 1.626 5.583.109 2.133-.156 4.319-.795 6.56a21.483 21.483 0 0 1-2.945 6.27c-1.325 1.94-2.94 3.518-4.843 4.735-1.903 1.216-4.048 1.825-6.433 1.825h-20.817c.891-.193 1.88-1.024 2.963-2.494a32.559 32.559 0 0 0 2.946-4.86c.88-1.772 1.403-3.079 1.572-3.922l6.252-29.383c.193-.867.223-2.186.09-3.957-.132-1.77-.427-3.391-.885-4.86-.458-1.47-1.096-2.29-1.915-2.458zm12.072 1.156-4.698 22.046h1.337c2.265-.024 4.27-.566 6.017-1.626a13.481 13.481 0 0 0 4.283-4.084c1.108-1.663 1.861-3.434 2.259-5.313.397-1.88.397-3.65 0-5.313-.398-1.662-1.241-3.03-2.53-4.102-1.29-1.072-3.078-1.608-5.367-1.608z" data-paper-data="{&quot;glyphName&quot;:&quot;B&quot;,&quot;glyphIndex&quot;:0,&quot;firstGlyphOfWord&quot;:true,&quot;word&quot;:1}"/><path d="M274.61 305.82h.542c-1.735 5.517-4.157 9.583-7.265 12.197-3.108 2.614-6.625 3.934-10.553 3.958-3.686-.024-6.415-1.23-8.186-3.614-1.77-2.386-2.692-5.367-2.764-8.945-.073-3.578.632-7.162 2.114-10.752 1.482-3.59 3.644-6.602 6.487-9.035 2.843-2.434 6.264-3.699 10.264-3.795 2.843.048 5.156.813 6.939 2.295 1.783 1.482 3.03 3.41 3.74 5.783.711 2.373.91 4.92.597 7.643h-21.901c-1.35 5.397-1.428 9.5-.235 12.306 1.192 2.807 3.06 4.361 5.602 4.662 2.541.301 5.174-.614 7.896-2.746 2.723-2.133 4.964-5.452 6.722-9.957zm-5.132-5.457c.433-3.639.289-6.686-.434-9.144s-2.084-3.735-4.084-3.83c-1.855.023-3.644 1.06-5.367 3.107-1.723 2.048-3.259 5.337-4.608 9.867z" data-paper-data="{&quot;glyphName&quot;:&quot;e&quot;,&quot;glyphIndex&quot;:1,&quot;word&quot;:1}"/><path d="M308.22 305.82h.542c-1.734 5.517-4.156 9.583-7.264 12.197-3.108 2.614-6.626 3.934-10.553 3.958-3.686-.024-6.415-1.23-8.186-3.614-1.77-2.386-2.692-5.367-2.765-8.945-.072-3.578.633-7.162 2.115-10.752 1.481-3.59 3.644-6.602 6.487-9.035 2.843-2.434 6.264-3.699 10.264-3.795 2.843.048 5.156.813 6.939 2.295 1.783 1.482 3.03 3.41 3.74 5.783.711 2.373.91 4.92.597 7.643h-21.902c-1.349 5.397-1.427 9.5-.234 12.306 1.192 2.807 3.06 4.361 5.601 4.662 2.542.301 5.174-.614 7.897-2.746 2.723-2.133 4.963-5.452 6.722-9.957zm-5.132-5.457c.434-3.639.29-6.686-.433-9.144s-2.085-3.735-4.084-3.83c-1.856.023-3.644 1.06-5.367 3.107-1.723 2.048-3.259 5.337-4.608 9.867z" data-paper-data="{&quot;glyphName&quot;:&quot;e&quot;,&quot;glyphIndex&quot;:2,&quot;word&quot;:1}"/><path d="m330.519 285.798-.795 3.722-.072.253c1.807-1.975 3.83-3.204 6.071-3.686 1.807-.361 3.554-.277 5.24.253 1.687.53 2.844 1.59 3.47 3.18.482 1.687.235 3.29-.74 4.807-.977 1.518-2.537 2.289-4.681 2.313.94-3.012.964-5.367.072-7.065-.891-1.699-2.433-2.187-4.626-1.464-1.349.554-2.505 1.59-3.47 3.108-.963 1.518-1.764 3.253-2.403 5.204a58.678 58.678 0 0 0-1.572 5.747c-.289 1.421-.59 2.843-.903 4.264-.29 1.422-.59 2.843-.904 4.265-.168.843-.217 2.078-.144 3.704a18.05 18.05 0 0 0 .795 4.626c.458 1.458 1.156 2.44 2.096 2.946h-17.456c1.132-.506 2.24-1.488 3.325-2.946 1.084-1.457 2.012-3 2.783-4.626.77-1.626 1.24-2.86 1.41-3.704l1.806-8.493c.193-.868.283-2.102.271-3.705a16.026 16.026 0 0 0-.686-4.59c-.446-1.457-1.211-2.451-2.295-2.981z" data-paper-data="{&quot;glyphName&quot;:&quot;r&quot;,&quot;glyphIndex&quot;:3,&quot;lastGlyphOfWord&quot;:true,&quot;word&quot;:1}"/></g><g fill="#ffc72c" fill-rule="evenodd" data-paper-data="{&quot;isIcon&quot;:&quot;true&quot;,&quot;iconType&quot;:&quot;icon&quot;,&quot;rawIconId&quot;:&quot;32564&quot;,&quot;selectedEffects&quot;:{&quot;container&quot;:&quot;&quot;,&quot;transformation&quot;:&quot;&quot;,&quot;pattern&quot;:&quot;&quot;},&quot;isDetailed&quot;:false,&quot;fillRule&quot;:&quot;evenodd&quot;,&quot;bounds&quot;:{&quot;x&quot;:238.8128655747587,&quot;y&quot;:115.00000000000001,&quot;width&quot;:72.37426885048262,&quot;height&quot;:128.04447564997366},&quot;iconStyle&quot;:&quot;standalone&quot;,&quot;suitableAsStandaloneIcon&quot;:true}"><path d="M252.793 243.044a1.944 1.944 0 0 1-1.94-1.94v-33.147c.024-11.818-5.993-29.638-8.063-35.77-.263-.778-.462-1.368-.578-1.734-.055-.257-.105-.243-.15-.586-2.596-11.303-3.247-24.03-3.25-34.206 0-10.899.76-18.861.763-18.904a1.94 1.94 0 0 1 1.932-1.757h34.464c1.068 0 1.939.869 1.939 1.942v.032c.047.1.086.206.116.317.72 2.623 3.121 4.558 5.972 4.556a6.08 6.08 0 0 0 3.724-1.255l.002.002a1.94 1.94 0 0 1 2.354 3.082 9.876 9.876 0 0 1-1.958 1.169v10.225l-.01.184s-.003.003-.003.1c0 2.296 1.813 4.216 4.072 4.321l.206.005.15-.002a4.301 4.301 0 0 0 4.12-4.29c0-.06-.002-.15-.005-.27 0-.06 0-.119.004-.178v-18c0-1.071.866-1.94 1.941-1.94h9.894c1 0 1.84.759 1.931 1.757.006.039.72 7.485.767 17.831v2.14c-.047 9.997-.747 22.244-3.259 33.162-.044.32-.089.312-.144.562-.076.241-.17.54-.295.907-.243.736-.585 1.741-.996 2.977a241.046 241.046 0 0 0-3.013 9.631c-2.186 7.583-4.347 16.94-4.334 23.986V241.1a1.92 1.92 0 0 1-.57 1.373 1.93 1.93 0 0 1-1.376.571zm46.747-59.416c-2.153 7.622-4.269 16.788-4.279 24.328v20.212h-40.527v-20.21c-.012-7.783-2.267-17.302-4.488-25.06a241.336 241.336 0 0 0-3.06-9.789c-.413-1.247-.76-2.263-1-2.977a71.36 71.36 0 0 1-.264-.816l-.041-.142-.007-.022-.001-.007-.005.001-.01-.083c-2.503-10.84-3.17-23.38-3.167-33.402 0-7.703.388-13.896.605-16.78h31.161a10.075 10.075 0 0 0 9.78 6.844l-.002 9.32a3.445 3.445 0 0 0-.006.27v.038a8.211 8.211 0 0 0 6.528 8.036c.101.034.207.06.316.076v-.002a8.598 8.598 0 0 0 1.631.09c.333-.01.666-.038.997-.086.137-.02.27-.054.394-.1 3.73-.823 6.444-4.104 6.444-7.979 0-.1-.002-.189-.005-.263l.001-.054v-16.193h6.17c.217 2.887.602 9.092.602 16.806.003 10.017-.668 22.545-3.17 33.377l-.01.085h-.008c-.17.711-2.437 6.932-4.579 14.482zm-26.374 55.536h.059l22.036-.004v-7.114h-40.527v7.116z" data-paper-data="{&quot;isPathIcon&quot;:true}"/></g></g></svg>